# xmcd
#
# Track frame offsets:
#	150
#	13752
#	29612
#	41717
#	56264
#	69704
#	81830
#	96476
#	109272
#	125902
#	138821
#	166289
#	196067
#	212513
#	226050
#	247468
#	268724
#	285870
#	299396
#	319751
#
# Disc length: 4481 seconds
#
# Revision: 1
# Processed by: cddbd v1.5.2PL0 Copyright (c) Steve Scherf et al.
# Submitted via: EZCDAudioConverter 2.1.7.1
#
DISCID=2b117f14
DTITLE=The Cure - Disintegration 2/3
DYEAR=1900
DGENRE=
TTITLE0=The Cure - Prayers For Rain [RS Home Demo]
TTITLE1=The Cure - Pictures Of You [RS Home Demo]
TTITLE2=The Cure - Fascination Street [RS Home Demo]
TTITLE3=The Cure - Homesick [Band Rehearsal]
TTITLE4=The Cure - Fear Of Ghosts [Band Rehearsal]
TTITLE5=The Cure - Noheart [Band Rehearsal]
TTITLE6=The Cure - Esten [Band Demo]
TTITLE7=The Cure - Closedown [Band Demo]
TTITLE8=The Cure - Lovesong [Band Demo]
TTITLE9=The Cure - 2 Late [Band Demo]
TTITLE10=The Cure - The Same Deep Water As You [Band Demo]
TTITLE11=The Cure - Disintegration [Band Demo]
TTITLE12=The Cure - Untitled [Studio Rough]
TTITLE13=The Cure - Babble [Studio Rough]
TTITLE14=The Cure - Plainsong [Studio Rough]
TTITLE15=The Cure - Last Dance [Studio Rough]
TTITLE16=The Cure - Lullaby [Studio Rough]
TTITLE17=The Cure - Out Of Mind [Studio Rough]
TTITLE18=The Cure - Delirious Night [Rough Mix]
TTITLE19=Robert Smith - Pirate Ships [Rough Mix]
EXTD=
EXTT0=
EXTT1=
EXTT2=
EXTT3=
EXTT4=
EXTT5=
EXTT6=
EXTT7=
EXTT8=
EXTT9=
EXTT10=
EXTT11=
EXTT12=
EXTT13=
EXTT14=
EXTT15=
EXTT16=
EXTT17=
EXTT18=
EXTT19=
PLAYORDER=
